<svg xmlns="http://www.w3.org/2000/svg" width="55" height="17.18" viewBox="0 0 55 17.18">
  <g id="Fincra_Coloured_logo" data-name="Fincra Coloured logo" transform="translate(-90 -299.5)">
    <g id="Group_1" data-name="Group 1" transform="translate(90 299.5)">
      <path id="Path_1" data-name="Path 1" d="M94.318,422.554c-.009-.018-.009-.036-.018-.054C94.309,422.509,94.309,422.527,94.318,422.554Z" transform="translate(-93.912 -411.39)" fill="#fff"/>
      <path id="Path_2" data-name="Path 2" d="M221.9,306.9c.009,0,.018.009.027.009C221.918,306.909,221.909,306.9,221.9,306.9Z" transform="translate(-209.986 -306.232)" fill="#fff"/>
      <path id="Path_3" data-name="Path 3" d="M213,303.6a.213.213,0,0,0,.072.018A.17.17,0,0,1,213,303.6Z" transform="translate(-201.89 -303.23)" fill="#fff"/>
      <path id="Path_4" data-name="Path 4" d="M217.6,305.2c.018.009.045.018.063.027C217.645,305.218,217.618,305.209,217.6,305.2Z" transform="translate(-206.074 -304.685)" fill="#fff"/>
      <path id="Path_5" data-name="Path 5" d="M95.909,427.127c0-.009-.009-.018-.009-.027C95.9,427.109,95.909,427.118,95.909,427.127Z" transform="translate(-95.367 -415.574)" fill="#fff"/>
      <path id="Path_6" data-name="Path 6" d="M226.2,308.8c.018.009.027.009.045.018A.153.153,0,0,0,226.2,308.8Z" transform="translate(-213.897 -307.96)" fill="#fff"/>
      <path id="Path_7" data-name="Path 7" d="M272.4,356.8l.054.135Z" transform="translate(-255.924 -351.624)" fill="#fff"/>
      <path id="Path_8" data-name="Path 8" d="M274.3,361.4c.018.036.027.081.045.117A.627.627,0,0,1,274.3,361.4Z" transform="translate(-257.653 -355.809)" fill="#fff"/>
      <path id="Path_9" data-name="Path 9" d="M263.7,341c.018.027.036.045.054.072A.5.5,0,0,1,263.7,341Z" transform="translate(-248.01 -337.251)" fill="#fff"/>
      <path id="Path_10" data-name="Path 10" d="M90.3,399.145v0Z" transform="translate(-90.273 -390.103)" fill="#fff"/>
      <path id="Path_11" data-name="Path 11" d="M91.2,409Z" transform="translate(-91.092 -399.109)" fill="#fff"/>
      <path id="Path_12" data-name="Path 12" d="M92.109,413.454c0-.018-.009-.036-.009-.054A.114.114,0,0,0,92.109,413.454Z" transform="translate(-91.91 -403.112)" fill="#fff"/>
      <path id="Path_13" data-name="Path 13" d="M90.66,404.218V404.2C90.651,404.2,90.66,404.209,90.66,404.218Z" transform="translate(-90.596 -394.743)" fill="#fff"/>
      <path id="Path_14" data-name="Path 14" d="M208.9,302.5c.009,0,.009,0,.018.009A.028.028,0,0,0,208.9,302.5Z" transform="translate(-198.16 -302.229)" fill="#fff"/>
      <path id="Path_15" data-name="Path 15" d="M204.1,301.4c.018,0,.036.009.054.009A.32.32,0,0,1,204.1,301.4Z" transform="translate(-193.794 -301.228)" fill="#fff"/>
      <path id="Path_16" data-name="Path 16" d="M90.3,343.389a8.631,8.631,0,0,1,1.617-4.589A8.483,8.483,0,0,0,90.3,343.389Z" transform="translate(-90.273 -335.25)" fill="#fff"/>
      <path id="Path_17" data-name="Path 17" d="M97.609,431.327c0-.009-.009-.018-.009-.027A.033.033,0,0,0,97.609,431.327Z" transform="translate(-96.914 -419.395)" fill="#fff"/>
      <path id="Path_18" data-name="Path 18" d="M152.245,483.718c-.018-.009-.027-.009-.045-.018A.069.069,0,0,1,152.245,483.718Z" transform="translate(-146.582 -467.062)" fill="#fff"/>
      <path id="Path_19" data-name="Path 19" d="M279.7,384.7v0Z" transform="translate(-262.565 -377.004)" fill="#fff"/>
      <path id="Path_20" data-name="Path 20" d="M279.1,379.8c0,.018.009.036.009.054A.115.115,0,0,1,279.1,379.8Z" transform="translate(-262.019 -372.547)" fill="#fff"/>
      <path id="Path_21" data-name="Path 21" d="M138.27,342.171a3.743,3.743,0,0,0-3.342,4.679,2.637,2.637,0,0,1,2.457-1.093c1.879.009,3.749-.018,5.627-.018a3.741,3.741,0,0,0,2.258-.723,6.911,6.911,0,0,0,1.852-1.843l.009-.009a8.963,8.963,0,0,0-.578-1.039C143.8,342.126,141.034,342.018,138.27,342.171Z" transform="translate(-130.773 -338.242)" fill="#fff"/>
      <path id="Path_22" data-name="Path 22" d="M156.745,485.218c-.018-.009-.036-.009-.045-.018C156.718,485.209,156.736,485.209,156.745,485.218Z" transform="translate(-150.675 -468.426)" fill="#fff"/>
      <path id="Path_23" data-name="Path 23" d="M170.7,488.5Z" transform="translate(-163.411 -471.428)" fill="#fff"/>
      <path id="Path_24" data-name="Path 24" d="M105.947,400.344c.361.027.732-.009,1.093.009a3.813,3.813,0,0,0,2.123-.6,7.323,7.323,0,0,0,2.475-2.647c.181-.307.145-.425-.244-.415-1.418.018-2.827.009-4.245.009a4.916,4.916,0,0,0-4.887,3.189,4.618,4.618,0,0,0-.262.75,7.921,7.921,0,0,0,.777,1.165A3.564,3.564,0,0,1,105.947,400.344Z" transform="translate(-100.916 -387.915)" fill="#fff"/>
      <path id="Path_25" data-name="Path 25" d="M161.409,486.6h0Z" transform="translate(-154.951 -469.7)" fill="#fff"/>
      <path id="Path_26" data-name="Path 26" d="M277,370.1c.009.027.018.054.027.09C277.018,370.163,277.009,370.136,277,370.1Z" transform="translate(-260.109 -363.723)" fill="#fff"/>
      <path id="Path_27" data-name="Path 27" d="M99.509,435.718c0-.009-.009-.009-.009-.018A.032.032,0,0,1,99.509,435.718Z" transform="translate(-98.642 -423.397)" fill="#fff"/>
      <path id="Path_28" data-name="Path 28" d="M275.7,365.6c.009.036.027.081.036.117C275.727,365.681,275.709,365.636,275.7,365.6Z" transform="translate(-258.926 -359.629)" fill="#fff"/>
      <path id="Path_29" data-name="Path 29" d="M278.2,374.9c.009.027.009.045.018.072A.17.17,0,0,1,278.2,374.9Z" transform="translate(-261.201 -368.089)" fill="#fff"/>
      <path id="Path_30" data-name="Path 30" d="M162.322,486.772a8.289,8.289,0,0,1-.822-.172C161.771,486.672,162.051,486.726,162.322,486.772Z" transform="translate(-155.042 -469.7)" fill="#7535fd"/>
      <path id="Path_31" data-name="Path 31" d="M90.654,404.815c-.018-.135-.036-.28-.054-.415C90.618,404.535,90.636,404.68,90.654,404.815Z" transform="translate(-90.546 -394.925)" fill="#7535fd"/>
      <path id="Path_32" data-name="Path 32" d="M97.863,431.961c-.054-.117-.108-.244-.163-.361A2.6,2.6,0,0,0,97.863,431.961Z" transform="translate(-97.004 -419.668)" fill="#7535fd"/>
      <path id="Path_33" data-name="Path 33" d="M94.626,423.37c-.045-.117-.081-.244-.126-.37C94.536,423.126,94.581,423.253,94.626,423.37Z" transform="translate(-94.094 -411.845)" fill="#7535fd"/>
      <path id="Path_34" data-name="Path 34" d="M157.579,485.508l-.379-.108Z" transform="translate(-151.13 -468.608)" fill="#7535fd"/>
      <path id="Path_35" data-name="Path 35" d="M99.808,436.3h0c-.072-.136-.145-.262-.208-.4C99.663,436.035,99.735,436.162,99.808,436.3Z" transform="translate(-98.733 -423.579)" fill="#7535fd"/>
      <path id="Path_36" data-name="Path 36" d="M153.061,484.017c-.117-.036-.244-.081-.361-.117C152.817,483.936,152.944,483.981,153.061,484.017Z" transform="translate(-147.036 -467.244)" fill="#7535fd"/>
      <path id="Path_37" data-name="Path 37" d="M91.272,409.4c-.027-.136-.054-.262-.072-.4C91.227,409.135,91.245,409.262,91.272,409.4Z" transform="translate(-91.092 -399.109)" fill="#7535fd"/>
      <path id="Path_38" data-name="Path 38" d="M92.3,414.759c-.072-.253-.145-.506-.2-.759C92.154,414.253,92.226,414.506,92.3,414.759Z" transform="translate(-91.91 -403.658)" fill="#7535fd"/>
      <path id="Path_39" data-name="Path 39" d="M96.135,427.752,96,427.4Z" transform="translate(-95.458 -415.847)" fill="#7535fd"/>
      <path id="Path_40" data-name="Path 40" d="M229.951,311.89A8.539,8.539,0,0,0,226.6,309,8.653,8.653,0,0,1,229.951,311.89Z" transform="translate(-214.261 -308.142)" fill="#7535fd"/>
      <path id="Path_41" data-name="Path 41" d="M279.1,380.4c.018.126.036.262.054.388C279.136,380.662,279.127,380.526,279.1,380.4Z" transform="translate(-262.019 -373.093)" fill="#7535fd"/>
      <path id="Path_42" data-name="Path 42" d="M278.3,375.7c.027.117.045.244.063.37C278.345,375.944,278.327,375.826,278.3,375.7Z" transform="translate(-261.291 -368.817)" fill="#7535fd"/>
      <path id="Path_43" data-name="Path 43" d="M277.3,371.1c.027.117.054.226.081.343C277.354,371.326,277.327,371.217,277.3,371.1Z" transform="translate(-260.382 -364.633)" fill="#7535fd"/>
      <path id="Path_44" data-name="Path 44" d="M276.1,366.9c.027.1.054.19.081.289C276.154,367.1,276.127,367,276.1,366.9Z" transform="translate(-259.29 -360.812)" fill="#7535fd"/>
      <path id="Path_45" data-name="Path 45" d="M274.7,362.7c.027.081.063.172.09.262C274.763,362.872,274.736,362.79,274.7,362.7Z" transform="translate(-258.017 -356.991)" fill="#7535fd"/>
      <path id="Path_46" data-name="Path 46" d="M180.637,385c.027.28.045.569.045.858a8.577,8.577,0,0,1-8.581,8.581,8.816,8.816,0,0,1-1.3-.1,8.912,8.912,0,0,0,1.3.1,8.583,8.583,0,0,0,8.581-8.581C180.682,385.569,180.664,385.289,180.637,385Z" transform="translate(-163.502 -377.277)" fill="#7535fd"/>
      <path id="Path_47" data-name="Path 47" d="M110.46,453.2h0a8.521,8.521,0,0,0,3.776,2.755A8.565,8.565,0,0,1,110.46,453.2Z" transform="translate(-108.608 -439.317)" fill="#7535fd"/>
      <path id="Path_48" data-name="Path 48" d="M115.155,299.5a8.823,8.823,0,0,1,1.707.172,8.293,8.293,0,0,0-1.707-.172,8.562,8.562,0,0,0-6.955,3.559A8.549,8.549,0,0,1,115.155,299.5Z" transform="translate(-106.556 -299.5)" fill="#7535fd"/>
      <path id="Path_49" data-name="Path 49" d="M90.327,400.016a3.106,3.106,0,0,1-.027-.415C90.309,399.736,90.318,399.88,90.327,400.016Z" transform="translate(-90.273 -390.558)" fill="#7535fd"/>
      <path id="Path_50" data-name="Path 50" d="M90.209,389.6c-.009.145-.009.3-.009.443s0,.28.009.415c-.009-.135-.009-.28-.009-.415S90.2,389.754,90.209,389.6Z" transform="translate(-90.182 -381.462)" fill="#7535fd"/>
      <path id="Path_51" data-name="Path 51" d="M218.3,305.4c.108.045.217.081.325.126C218.517,305.49,218.408,305.445,218.3,305.4Z" transform="translate(-206.711 -304.867)" fill="#7535fd"/>
      <path id="Path_52" data-name="Path 52" d="M213.7,303.9c.117.036.235.072.352.117C213.935,303.972,213.817,303.936,213.7,303.9Z" transform="translate(-202.527 -303.503)" fill="#7535fd"/>
      <path id="Path_53" data-name="Path 53" d="M204.6,301.5c.126.027.253.054.379.09A3.9,3.9,0,0,0,204.6,301.5Z" transform="translate(-194.249 -301.319)" fill="#7535fd"/>
      <path id="Path_54" data-name="Path 54" d="M273.1,358.3l.108.271Q273.154,358.449,273.1,358.3Z" transform="translate(-256.561 -352.989)" fill="#7535fd"/>
      <path id="Path_55" data-name="Path 55" d="M209.1,302.5c.117.027.235.063.352.1C209.335,302.563,209.217,302.536,209.1,302.5Z" transform="translate(-198.342 -302.229)" fill="#7535fd"/>
      <path id="Path_56" data-name="Path 56" d="M222.3,307c.117.054.235.1.352.163Z" transform="translate(-210.35 -306.323)" fill="#7535fd"/>
      <path id="Path_57" data-name="Path 57" d="M271.2,354.1h0l.108.244Z" transform="translate(-254.833 -349.168)" fill="#7535fd"/>
      <path id="Path_58" data-name="Path 58" d="M264.345,341.872c-.018-.027-.027-.045-.045-.072a.2.2,0,0,0,.045.072Z" transform="translate(-248.556 -337.979)" fill="#7535fd"/>
      <path id="Path_59" data-name="Path 59" d="M107.18,308.263c0-.289-.018-.578-.045-.858v-.027a2.681,2.681,0,0,0-.054-.388c0-.018-.009-.036-.009-.054-.018-.126-.045-.244-.063-.37-.009-.027-.009-.045-.018-.072-.027-.117-.054-.235-.081-.343-.009-.027-.018-.054-.027-.09-.027-.1-.054-.19-.081-.289-.009-.036-.027-.081-.036-.117-.027-.09-.054-.172-.09-.262-.018-.036-.027-.081-.045-.117l-.108-.271-.054-.135-.108-.244-.009.009a7.044,7.044,0,0,1-1.852,1.843,3.722,3.722,0,0,1-2.258.723c-1.879,0-3.749.027-5.627.018a2.629,2.629,0,0,0-2.457,1.093,3.734,3.734,0,0,1,3.342-4.679c2.764-.154,5.519-.054,8.283-.036-.018-.027-.027-.045-.045-.072a.5.5,0,0,0-.054-.072,8.653,8.653,0,0,0-3.351-2.89c-.018-.009-.027-.009-.045-.018l-.352-.163c-.009,0-.018-.009-.027-.009-.108-.045-.217-.09-.325-.126-.018-.009-.045-.018-.063-.027-.117-.045-.235-.081-.352-.117a.213.213,0,0,0-.072-.018c-.117-.036-.235-.072-.352-.1-.009,0-.009,0-.018-.009-.126-.036-.253-.063-.379-.09-.018,0-.036-.009-.054-.009a8.821,8.821,0,0,0-1.707-.172,8.592,8.592,0,0,0-8.572,8.147c-.009.145-.009.289-.009.443,0,.135,0,.28.009.415v.045c.009.136.018.271.027.416v.018c.018.135.036.28.054.415h0c.018.135.045.271.072.4,0,.018.009.036.009.054a6.663,6.663,0,0,0,.2.759c.009.018.009.036.018.054.036.126.081.244.126.37,0,.009.009.018.009.027l.135.352c0,.009.009.018.009.027.054.126.108.244.163.361,0,.009.009.009.009.018.063.136.135.271.208.4a7.363,7.363,0,0,1,.262-.75A4.924,4.924,0,0,1,96.2,308.48c1.418.009,2.827.009,4.245-.009.388,0,.425.117.244.416a7.251,7.251,0,0,1-2.475,2.647,3.813,3.813,0,0,1-2.123.6c-.361-.009-.732.027-1.093-.009a3.583,3.583,0,0,0-3.18,1.454,8.667,8.667,0,0,0,3.776,2.755c.018.009.027.009.045.018.117.045.235.081.361.117.018.009.036.009.045.018l.379.108h.009a8.28,8.28,0,0,0,.822.172h.009a8.816,8.816,0,0,0,1.3.1A8.606,8.606,0,0,0,107.18,308.263Z" transform="translate(-90 -299.682)" fill="#7535fd"/>
    </g>
    <g id="Group_2" data-name="Group 2" transform="translate(110.558 303.4)">
      <path id="Path_60" data-name="Path 60" d="M321.981,342.712v1.237c-.154-.009-.3-.027-.415-.027a1.164,1.164,0,0,0-1.247,1.238v.939h1.635v1.237h-1.635v5.3h-1.454v-5.3H317.6V346.1h1.265v-.9a2.347,2.347,0,0,1,2.547-2.52A2.828,2.828,0,0,1,321.981,342.712Zm2.6.5a.873.873,0,0,1,0,1.265.95.95,0,0,1-1.3,0,.889.889,0,0,1,0-1.265A.916.916,0,0,1,324.582,343.209Zm.072,9.43H323.2V346.1h1.454Z" transform="translate(-317.6 -342.674)" fill="#1c015a"/>
      <path id="Path_61" data-name="Path 61" d="M424.2,380.041a2.709,2.709,0,0,1,.732,1.978v3.938h-1.472v-3.749a1.421,1.421,0,0,0-1.454-1.581,1.506,1.506,0,0,0-1.545,1.59v3.74H419v-6.54h1.382v.867a2.078,2.078,0,0,1,1.951-.985A2.477,2.477,0,0,1,424.2,380.041Z" transform="translate(-409.841 -375.992)" fill="#1c015a"/>
      <path id="Path_62" data-name="Path 62" d="M509.1,381.865l-1.427.126a1.53,1.53,0,0,0-1.635-1.373c-1.1,0-1.861.8-1.861,2.168a1.9,1.9,0,0,0,1.861,2.15,1.543,1.543,0,0,0,1.653-1.3l1.427.126a2.916,2.916,0,0,1-3.08,2.412,3.389,3.389,0,1,1,0-6.775A2.878,2.878,0,0,1,509.1,381.865Z" transform="translate(-485.98 -376.082)" fill="#1c015a"/>
      <path id="Path_63" data-name="Path 63" d="M594.615,381.182a1.688,1.688,0,0,0-1.861,1.671v3.559H591.3v-6.54h1.418v.921a1.9,1.9,0,0,1,1.9-.994Z" transform="translate(-566.578 -376.447)" fill="#1c015a"/>
      <path id="Path_64" data-name="Path 64" d="M643.5,381.8v4.065h-1.472v-.587a2.593,2.593,0,0,1-1.807.714c-1.355,0-2.222-.7-2.222-1.915s.822-1.888,2.448-1.978l1.59-.09v-.19c0-.9-.388-1.364-1.183-1.364a1.081,1.081,0,0,0-1.192,1.111l-1.472-.054a2.143,2.143,0,0,1,.732-1.608,2.643,2.643,0,0,1,1.924-.7A2.38,2.38,0,0,1,643.5,381.8Zm-1.454,1.319-1.391.09c-.795.036-1.183.316-1.183.84,0,.5.334.741,1,.741.975,0,1.572-.488,1.572-1.436Z" transform="translate(-609.059 -375.901)" fill="#1c015a"/>
    </g>
  </g>
</svg>
